<mxfile host="65bd71144e">
    <diagram id="dmCsaiAE9yR2updQvktD" name="Page-1">
        <mxGraphModel dx="898" dy="314" grid="1" gridSize="10" guides="1" tooltips="1" connect="1" arrows="1" fold="1" page="0" pageScale="1" pageWidth="827" pageHeight="1169" math="0" shadow="0">
            <root>
                <mxCell id="0"/>
                <mxCell id="1" parent="0"/>
                <mxCell id="8" style="edgeStyle=none;html=1;exitX=0.5;exitY=0;exitDx=0;exitDy=0;entryX=0;entryY=0.5;entryDx=0;entryDy=0;" parent="1" source="2" target="4" edge="1">
                    <mxGeometry relative="1" as="geometry"/>
                </mxCell>
                <mxCell id="9" style="edgeStyle=none;html=1;exitX=0.5;exitY=0;exitDx=0;exitDy=0;entryX=0;entryY=0.5;entryDx=0;entryDy=0;" parent="1" source="2" target="5" edge="1">
                    <mxGeometry relative="1" as="geometry"/>
                </mxCell>
                <mxCell id="10" style="edgeStyle=none;html=1;exitX=0.5;exitY=0;exitDx=0;exitDy=0;entryX=0;entryY=0.5;entryDx=0;entryDy=0;" parent="1" source="2" target="6" edge="1">
                    <mxGeometry relative="1" as="geometry"/>
                </mxCell>
                <mxCell id="2" value="" style="rounded=1;whiteSpace=wrap;html=1;rotation=90;" parent="1" vertex="1">
                    <mxGeometry x="-50" y="130" width="380" height="200" as="geometry"/>
                </mxCell>
                <mxCell id="3" value="express&lt;br&gt;gateway" style="text;html=1;align=center;verticalAlign=middle;resizable=0;points=[];autosize=1;strokeColor=none;fillColor=none;" parent="1" vertex="1">
                    <mxGeometry x="110" y="215" width="60" height="30" as="geometry"/>
                </mxCell>
                <mxCell id="15" style="edgeStyle=none;html=1;exitX=1;exitY=0.5;exitDx=0;exitDy=0;entryX=0;entryY=0.15;entryDx=0;entryDy=0;entryPerimeter=0;" parent="1" source="4" target="7" edge="1">
                    <mxGeometry relative="1" as="geometry"/>
                </mxCell>
                <mxCell id="4" value="user service" style="rounded=1;whiteSpace=wrap;html=1;" parent="1" vertex="1">
                    <mxGeometry x="400" y="40" width="120" height="60" as="geometry"/>
                </mxCell>
                <mxCell id="14" style="edgeStyle=none;html=1;exitX=1;exitY=0.5;exitDx=0;exitDy=0;" parent="1" source="5" target="7" edge="1">
                    <mxGeometry relative="1" as="geometry"/>
                </mxCell>
                <mxCell id="5" value="post service" style="rounded=1;whiteSpace=wrap;html=1;" parent="1" vertex="1">
                    <mxGeometry x="400" y="200" width="120" height="60" as="geometry"/>
                </mxCell>
                <mxCell id="16" style="edgeStyle=none;html=1;exitX=1;exitY=0.5;exitDx=0;exitDy=0;entryX=0;entryY=0.85;entryDx=0;entryDy=0;entryPerimeter=0;" parent="1" source="6" target="7" edge="1">
                    <mxGeometry relative="1" as="geometry"/>
                </mxCell>
                <mxCell id="6" value="subreddit service" style="rounded=1;whiteSpace=wrap;html=1;" parent="1" vertex="1">
                    <mxGeometry x="400" y="360" width="120" height="60" as="geometry"/>
                </mxCell>
                <mxCell id="7" value="PostgreSQL&lt;br&gt;DB" style="strokeWidth=2;html=1;shape=mxgraph.flowchart.database;whiteSpace=wrap;" parent="1" vertex="1">
                    <mxGeometry x="680" y="160" width="130" height="140" as="geometry"/>
                </mxCell>
                <mxCell id="17" value="post" style="swimlane;" parent="1" vertex="1">
                    <mxGeometry x="40" y="560" width="200" height="200" as="geometry"/>
                </mxCell>
                <mxCell id="18" value="id serial primary key;&lt;br&gt;title varchar(64);&lt;br&gt;description text;&lt;br&gt;author int references user(id);&lt;br&gt;likes int default 0;" style="text;html=1;align=left;verticalAlign=middle;resizable=0;points=[];autosize=1;strokeColor=none;fillColor=none;" parent="17" vertex="1">
                    <mxGeometry x="10" y="40" width="170" height="80" as="geometry"/>
                </mxCell>
                <mxCell id="20" value="comment" style="swimlane;" parent="1" vertex="1">
                    <mxGeometry x="280" y="560" width="200" height="200" as="geometry"/>
                </mxCell>
                <mxCell id="21" value="id serial primary key;&lt;br&gt;post_id int references posts(id);&lt;br&gt;user_id int references users(id);&lt;br&gt;comment varchar(256);&lt;br&gt;" style="text;html=1;align=left;verticalAlign=middle;resizable=0;points=[];autosize=1;strokeColor=none;fillColor=none;" parent="20" vertex="1">
                    <mxGeometry x="10" y="40" width="180" height="60" as="geometry"/>
                </mxCell>
                <mxCell id="22" value="user" style="swimlane;" parent="1" vertex="1">
                    <mxGeometry x="520" y="560" width="200" height="200" as="geometry"/>
                </mxCell>
                <mxCell id="24" value="id serial primary key;&lt;br&gt;email varchar(32);&lt;br&gt;password varchar(128);&lt;br&gt;username varchar(16);" style="text;html=1;align=left;verticalAlign=middle;resizable=0;points=[];autosize=1;strokeColor=none;fillColor=none;" parent="22" vertex="1">
                    <mxGeometry x="10" y="40" width="140" height="60" as="geometry"/>
                </mxCell>
                <mxCell id="23" value="subreddit" style="swimlane;" parent="1" vertex="1">
                    <mxGeometry x="40" y="800" width="200" height="200" as="geometry"/>
                </mxCell>
                <mxCell id="25" value="id serial primary key;&lt;br&gt;Name varchar(32);&lt;br&gt;Description varchar(64);" style="text;html=1;align=left;verticalAlign=middle;resizable=0;points=[];autosize=1;strokeColor=none;fillColor=none;" parent="23" vertex="1">
                    <mxGeometry x="10" y="40" width="140" height="50" as="geometry"/>
                </mxCell>
                <mxCell id="26" value="subreddit_users" style="swimlane;startSize=23;" parent="1" vertex="1">
                    <mxGeometry x="280" y="800" width="280" height="200" as="geometry"/>
                </mxCell>
                <mxCell id="27" value="subreddit_id integer references subreddit(id);&lt;br&gt;user_id integer references users(id);&lt;br&gt;Primary key (subreddit_id, user_id);" style="text;html=1;align=left;verticalAlign=middle;resizable=0;points=[];autosize=1;strokeColor=none;fillColor=none;" parent="26" vertex="1">
                    <mxGeometry x="9" y="40" width="250" height="50" as="geometry"/>
                </mxCell>
                <mxCell id="28" value="DB tables" style="rounded=1;whiteSpace=wrap;html=1;" parent="1" vertex="1">
                    <mxGeometry x="40" y="480" width="760" height="60" as="geometry"/>
                </mxCell>
                <mxCell id="29" value="" style="rounded=1;whiteSpace=wrap;html=1;" parent="1" vertex="1">
                    <mxGeometry x="40" y="1040" width="310" height="520" as="geometry"/>
                </mxCell>
                <mxCell id="30" value="&lt;div&gt;create table comments (&lt;/div&gt;&lt;div&gt;&amp;nbsp; &amp;nbsp; id serial primary key,&lt;/div&gt;&lt;div&gt;&amp;nbsp; &amp;nbsp; post_id int references posts(id),&lt;/div&gt;&lt;div&gt;&amp;nbsp; &amp;nbsp; user_id int references users(id),&lt;br&gt;&lt;/div&gt;&lt;div&gt;&amp;nbsp; &amp;nbsp; comment varchar(256)&lt;/div&gt;&lt;div&gt;);&lt;/div&gt;&lt;div&gt;&lt;br&gt;&lt;/div&gt;&lt;div&gt;create table posts (&lt;/div&gt;&lt;div&gt;&amp;nbsp; &amp;nbsp; id serial primary key,&lt;/div&gt;&lt;div&gt;&amp;nbsp; &amp;nbsp; title varchar(64),&lt;/div&gt;&lt;div&gt;&amp;nbsp; &amp;nbsp; description text,&lt;/div&gt;&lt;div&gt;&amp;nbsp; &amp;nbsp; author int references users(id),&lt;/div&gt;&lt;div&gt;&amp;nbsp; &amp;nbsp; likes int default 0,&lt;/div&gt;&lt;div&gt;&amp;nbsp; &amp;nbsp; subreddit_id int references subreddits(id)&lt;/div&gt;&lt;div&gt;);&lt;/div&gt;&lt;div&gt;&lt;br&gt;&lt;/div&gt;&lt;div&gt;create table users (&lt;/div&gt;&lt;div&gt;&amp;nbsp; &amp;nbsp; id serial primary key,&lt;/div&gt;&lt;div&gt;&amp;nbsp; &amp;nbsp; email varchar(32),&lt;/div&gt;&lt;div&gt;&amp;nbsp; &amp;nbsp; password varchar(128),&lt;/div&gt;&lt;div&gt;&amp;nbsp; &amp;nbsp; username varchar(16)&lt;/div&gt;&lt;div&gt;);&lt;/div&gt;&lt;div&gt;&lt;br&gt;&lt;/div&gt;&lt;div&gt;create table subreddits (&lt;/div&gt;&lt;div&gt;&amp;nbsp; &amp;nbsp; id serial primary key,&lt;/div&gt;&lt;div&gt;&amp;nbsp; &amp;nbsp; name varchar(32),&lt;/div&gt;&lt;div&gt;&amp;nbsp; &amp;nbsp; description varchar(64)&lt;/div&gt;&lt;div&gt;);&lt;/div&gt;&lt;div&gt;&lt;br&gt;&lt;/div&gt;&lt;div&gt;create table subreddit_users (&lt;/div&gt;&lt;div&gt;&amp;nbsp; &amp;nbsp; subreddit_id integer references subreddits(id),&lt;/div&gt;&lt;div&gt;&amp;nbsp; &amp;nbsp; user_id integer references users(id),&lt;/div&gt;&lt;div&gt;&amp;nbsp; &amp;nbsp; primary key (subreddit_id, user_id)&lt;/div&gt;&lt;div&gt;);&lt;/div&gt;" style="text;html=1;align=left;verticalAlign=middle;resizable=0;points=[];autosize=1;strokeColor=none;fillColor=none;" parent="1" vertex="1">
                    <mxGeometry x="60" y="1055" width="270" height="480" as="geometry"/>
                </mxCell>
            </root>
        </mxGraphModel>
    </diagram>
</mxfile>